# Blender v2.79 (sub 0) OBJ File: 'HighpolyCylinder.blend'
# www.blender.org
o Cylinder
v 0.000000 -0.086077 -1.000000
v 0.000000 0.086077 -1.000000
v 0.098017 -0.086077 -0.995185
v 0.098017 0.086077 -0.995185
v 0.195090 -0.086077 -0.980785
v 0.195090 0.086077 -0.980785
v 0.290285 -0.086077 -0.956940
v 0.290285 0.086077 -0.956940
v 0.382683 -0.086077 -0.923880
v 0.382683 0.086077 -0.923880
v 0.471397 -0.086077 -0.881921
v 0.471397 0.086077 -0.881921
v 0.555570 -0.086077 -0.831470
v 0.555570 0.086077 -0.831470
v 0.634393 -0.086077 -0.773010
v 0.634393 0.086077 -0.773010
v 0.707107 -0.086077 -0.707107
v 0.707107 0.086077 -0.707107
v 0.773010 -0.086077 -0.634393
v 0.773010 0.086077 -0.634393
v 0.831470 -0.086077 -0.555570
v 0.831470 0.086077 -0.555570
v 0.881921 -0.086077 -0.471397
v 0.881921 0.086077 -0.471397
v 0.923880 -0.086077 -0.382683
v 0.923880 0.086077 -0.382683
v 0.956940 -0.086077 -0.290285
v 0.956940 0.086077 -0.290285
v 0.980785 -0.086077 -0.195090
v 0.980785 0.086077 -0.195090
v 0.995185 -0.086077 -0.098017
v 0.995185 0.086077 -0.098017
v 1.000000 -0.086077 0.000000
v 1.000000 0.086077 0.000000
v 0.995185 -0.086077 0.098017
v 0.995185 0.086077 0.098017
v 0.980785 -0.086077 0.195091
v 0.980785 0.086077 0.195091
v 0.956940 -0.086077 0.290285
v 0.956940 0.086077 0.290285
v 0.923879 -0.086077 0.382684
v 0.923879 0.086077 0.382684
v 0.881921 -0.086077 0.471397
v 0.881921 0.086077 0.471397
v 0.831469 -0.086077 0.555571
v 0.831469 0.086077 0.555571
v 0.773010 -0.086077 0.634394
v 0.773010 0.086077 0.634394
v 0.707106 -0.086077 0.707107
v 0.707106 0.086077 0.707107
v 0.634393 -0.086077 0.773011
v 0.634393 0.086077 0.773011
v 0.555570 -0.086077 0.831470
v 0.555570 0.086077 0.831470
v 0.471396 -0.086077 0.881922
v 0.471396 0.086077 0.881922
v 0.382683 -0.086077 0.923880
v 0.382683 0.086077 0.923880
v 0.290284 -0.086077 0.956941
v 0.290284 0.086077 0.956941
v 0.195090 -0.086077 0.980785
v 0.195090 0.086077 0.980785
v 0.098016 -0.086077 0.995185
v 0.098016 0.086077 0.995185
v -0.000001 -0.086077 1.000000
v -0.000001 0.086077 1.000000
v -0.098018 -0.086077 0.995185
v -0.098018 0.086077 0.995185
v -0.195091 -0.086077 0.980785
v -0.195091 0.086077 0.980785
v -0.290286 -0.086077 0.956940
v -0.290286 0.086077 0.956940
v -0.382684 -0.086077 0.923879
v -0.382684 0.086077 0.923879
v -0.471398 -0.086077 0.881921
v -0.471398 0.086077 0.881921
v -0.555571 -0.086077 0.831469
v -0.555571 0.086077 0.831469
v -0.634394 -0.086077 0.773010
v -0.634394 0.086077 0.773010
v -0.707108 -0.086077 0.707106
v -0.707108 0.086077 0.707106
v -0.773011 -0.086077 0.634393
v -0.773011 0.086077 0.634393
v -0.831470 -0.086077 0.555570
v -0.831470 0.086077 0.555570
v -0.881922 -0.086077 0.471396
v -0.881922 0.086077 0.471396
v -0.923880 -0.086077 0.382683
v -0.923880 0.086077 0.382683
v -0.956940 -0.086077 0.290285
v -0.956940 0.086077 0.290285
v -0.980785 -0.086077 0.195090
v -0.980785 0.086077 0.195090
v -0.995185 -0.086077 0.098017
v -0.995185 0.086077 0.098017
v -1.000000 -0.086077 0.000000
v -1.000000 0.086077 0.000000
v -0.995185 -0.086077 -0.098016
v -0.995185 0.086077 -0.098016
v -0.980785 -0.086077 -0.195089
v -0.980785 0.086077 -0.195089
v -0.956941 -0.086077 -0.290284
v -0.956941 0.086077 -0.290284
v -0.923880 -0.086077 -0.382682
v -0.923880 0.086077 -0.382682
v -0.881922 -0.086077 -0.471395
v -0.881922 0.086077 -0.471395
v -0.831471 -0.086077 -0.555569
v -0.831471 0.086077 -0.555569
v -0.773012 -0.086077 -0.634392
v -0.773012 0.086077 -0.634392
v -0.707108 -0.086077 -0.707105
v -0.707108 0.086077 -0.707105
v -0.634395 -0.086077 -0.773009
v -0.634395 0.086077 -0.773009
v -0.555572 -0.086077 -0.831468
v -0.555572 0.086077 -0.831468
v -0.471399 -0.086077 -0.881920
v -0.471399 0.086077 -0.881920
v -0.382686 -0.086077 -0.923878
v -0.382686 0.086077 -0.923878
v -0.290288 -0.086077 -0.956939
v -0.290288 0.086077 -0.956939
v -0.195093 -0.086077 -0.980785
v -0.195093 0.086077 -0.980785
v -0.098021 -0.086077 -0.995184
v -0.098021 0.086077 -0.995184
vt 0.500000 1.000000
vt 0.500000 1.000000
vt 0.549009 0.997592
vt 0.549009 0.997592
vt 0.597545 0.990393
vt 0.597545 0.990393
vt 0.645142 0.978470
vt 0.645142 0.978470
vt 0.691342 0.961940
vt 0.691342 0.961940
vt 0.735698 0.940961
vt 0.735698 0.940961
vt 0.777785 0.915735
vt 0.777785 0.915735
vt 0.817196 0.886505
vt 0.817196 0.886505
vt 0.853553 0.853553
vt 0.853553 0.853553
vt 0.886505 0.817196
vt 0.886505 0.817196
vt 0.915735 0.777785
vt 0.915735 0.777785
vt 0.940961 0.735698
vt 0.940961 0.735698
vt 0.961940 0.691342
vt 0.961940 0.691342
vt 0.978470 0.645142
vt 0.978470 0.645142
vt 0.990393 0.597545
vt 0.990393 0.597545
vt 0.997592 0.549009
vt 0.997592 0.549009
vt 1.000000 0.500000
vt 1.000000 0.500000
vt 0.997592 0.450991
vt 0.997592 0.450991
vt 0.990393 0.402455
vt 0.990393 0.402455
vt 0.978470 0.354858
vt 0.978470 0.354858
vt 0.961940 0.308658
vt 0.961940 0.308658
vt 0.940961 0.264301
vt 0.940961 0.264301
vt 0.915735 0.222215
vt 0.915735 0.222215
vt 0.886505 0.182803
vt 0.886505 0.182803
vt 0.853553 0.146446
vt 0.853553 0.146446
vt 0.817196 0.113495
vt 0.817196 0.113495
vt 0.777785 0.084265
vt 0.777785 0.084265
vt 0.735698 0.059039
vt 0.735698 0.059039
vt 0.691341 0.038060
vt 0.691341 0.038060
vt 0.645142 0.021530
vt 0.645142 0.021530
vt 0.597545 0.009607
vt 0.597545 0.009607
vt 0.549008 0.002408
vt 0.549008 0.002408
vt 0.500000 0.000000
vt 0.500000 0.000000
vt 0.450991 0.002408
vt 0.450991 0.002408
vt 0.402454 0.009608
vt 0.402454 0.009608
vt 0.354857 0.021530
vt 0.354857 0.021530
vt 0.308658 0.038061
vt 0.308658 0.038061
vt 0.264301 0.059040
vt 0.264301 0.059040
vt 0.222215 0.084266
vt 0.222215 0.084266
vt 0.182803 0.113495
vt 0.182803 0.113495
vt 0.146446 0.146447
vt 0.146446 0.146447
vt 0.113495 0.182804
vt 0.113495 0.182804
vt 0.084265 0.222215
vt 0.084265 0.222215
vt 0.059039 0.264302
vt 0.059039 0.264302
vt 0.038060 0.308658
vt 0.038060 0.308658
vt 0.021530 0.354858
vt 0.021530 0.354858
vt 0.009607 0.402455
vt 0.009607 0.402455
vt 0.002408 0.450991
vt 0.002408 0.450991
vt 0.000000 0.500000
vt 0.000000 0.500000
vt 0.002408 0.549008
vt 0.002408 0.549008
vt 0.009607 0.597545
vt 0.009607 0.597545
vt 0.021530 0.645142
vt 0.021530 0.645142
vt 0.038060 0.691341
vt 0.038060 0.691341
vt 0.059039 0.735698
vt 0.059039 0.735698
vt 0.084265 0.777784
vt 0.084265 0.777784
vt 0.113494 0.817196
vt 0.113494 0.817196
vt 0.146446 0.853553
vt 0.146446 0.853553
vt 0.182803 0.886504
vt 0.182803 0.886504
vt 0.222214 0.915734
vt 0.222214 0.915734
vt 0.264300 0.940960
vt 0.264300 0.940960
vt 0.308657 0.961939
vt 0.308657 0.961939
vt 0.354856 0.978470
vt 0.354856 0.978470
vt 0.402453 0.990392
vt 0.402453 0.990392
vt 0.450990 0.997592
vt 0.450990 0.997592
vn -0.0000 0.0000 -1.0000
vn 0.0980 0.0000 -0.9952
vn 0.1951 0.0000 -0.9808
vn 0.2903 0.0000 -0.9569
vn 0.3827 0.0000 -0.9239
vn 0.4714 0.0000 -0.8819
vn 0.5556 0.0000 -0.8315
vn 0.6344 0.0000 -0.7730
vn 0.7071 0.0000 -0.7071
vn 0.7730 0.0000 -0.6344
vn 0.8315 0.0000 -0.5556
vn 0.8819 0.0000 -0.4714
vn 0.9239 0.0000 -0.3827
vn 0.9569 0.0000 -0.2903
vn 0.9808 0.0000 -0.1951
vn 0.9952 0.0000 -0.0980
vn 1.0000 0.0000 0.0000
vn 0.9952 0.0000 0.0980
vn 0.9808 0.0000 0.1951
vn 0.9569 0.0000 0.2903
vn 0.9239 0.0000 0.3827
vn 0.8819 0.0000 0.4714
vn 0.8315 0.0000 0.5556
vn 0.7730 0.0000 0.6344
vn 0.7071 0.0000 0.7071
vn 0.6344 0.0000 0.7730
vn 0.5556 0.0000 0.8315
vn 0.4714 0.0000 0.8819
vn 0.3827 0.0000 0.9239
vn 0.2903 0.0000 0.9569
vn 0.1951 0.0000 0.9808
vn 0.0980 0.0000 0.9952
vn -0.0000 0.0000 1.0000
vn -0.0980 0.0000 0.9952
vn -0.1951 0.0000 0.9808
vn -0.2903 0.0000 0.9569
vn -0.3827 0.0000 0.9239
vn -0.4714 0.0000 0.8819
vn -0.5556 0.0000 0.8315
vn -0.6344 0.0000 0.7730
vn -0.7071 0.0000 0.7071
vn -0.7730 0.0000 0.6344
vn -0.8315 0.0000 0.5556
vn -0.8819 0.0000 0.4714
vn -0.9239 0.0000 0.3827
vn -0.9569 0.0000 0.2903
vn -0.9808 0.0000 0.1951
vn -0.9952 0.0000 0.0980
vn -1.0000 0.0000 0.0000
vn -0.9952 0.0000 -0.0980
vn -0.9808 0.0000 -0.1951
vn -0.9569 0.0000 -0.2903
vn -0.9239 0.0000 -0.3827
vn -0.8819 0.0000 -0.4714
vn -0.8315 0.0000 -0.5556
vn -0.7730 0.0000 -0.6344
vn -0.7071 0.0000 -0.7071
vn -0.6344 0.0000 -0.7730
vn -0.5556 0.0000 -0.8315
vn -0.4714 0.0000 -0.8819
vn -0.3827 0.0000 -0.9239
vn -0.2903 0.0000 -0.9569
vn -0.1951 0.0000 -0.9808
vn 0.0000 1.0000 -0.0000
vn -0.0980 0.0000 -0.9952
vn 0.0000 -1.0000 -0.0000
s 1
f 1/1/1 2/2/1 4/3/2 3/4/2
f 3/4/2 4/3/2 6/5/3 5/6/3
f 5/6/3 6/5/3 8/7/4 7/8/4
f 7/8/4 8/7/4 10/9/5 9/10/5
f 9/10/5 10/9/5 12/11/6 11/12/6
f 11/12/6 12/11/6 14/13/7 13/14/7
f 13/14/7 14/13/7 16/15/8 15/16/8
f 15/16/8 16/15/8 18/17/9 17/18/9
f 17/18/9 18/17/9 20/19/10 19/20/10
f 19/20/10 20/19/10 22/21/11 21/22/11
f 21/22/11 22/21/11 24/23/12 23/24/12
f 23/24/12 24/23/12 26/25/13 25/26/13
f 25/26/13 26/25/13 28/27/14 27/28/14
f 27/28/14 28/27/14 30/29/15 29/30/15
f 29/30/15 30/29/15 32/31/16 31/32/16
f 31/32/16 32/31/16 34/33/17 33/34/17
f 33/34/17 34/33/17 36/35/18 35/36/18
f 35/36/18 36/35/18 38/37/19 37/38/19
f 37/38/19 38/37/19 40/39/20 39/40/20
f 39/40/20 40/39/20 42/41/21 41/42/21
f 41/42/21 42/41/21 44/43/22 43/44/22
f 43/44/22 44/43/22 46/45/23 45/46/23
f 45/46/23 46/45/23 48/47/24 47/48/24
f 47/48/24 48/47/24 50/49/25 49/50/25
f 49/50/25 50/49/25 52/51/26 51/52/26
f 51/52/26 52/51/26 54/53/27 53/54/27
f 53/54/27 54/53/27 56/55/28 55/56/28
f 55/56/28 56/55/28 58/57/29 57/58/29
f 57/58/29 58/57/29 60/59/30 59/60/30
f 59/60/30 60/59/30 62/61/31 61/62/31
f 61/62/31 62/61/31 64/63/32 63/64/32
f 63/64/32 64/63/32 66/65/33 65/66/33
f 65/66/33 66/65/33 68/67/34 67/68/34
f 67/68/34 68/67/34 70/69/35 69/70/35
f 69/70/35 70/69/35 72/71/36 71/72/36
f 71/72/36 72/71/36 74/73/37 73/74/37
f 73/74/37 74/73/37 76/75/38 75/76/38
f 75/76/38 76/75/38 78/77/39 77/78/39
f 77/78/39 78/77/39 80/79/40 79/80/40
f 79/80/40 80/79/40 82/81/41 81/82/41
f 81/82/41 82/81/41 84/83/42 83/84/42
f 83/84/42 84/83/42 86/85/43 85/86/43
f 85/86/43 86/85/43 88/87/44 87/88/44
f 87/88/44 88/87/44 90/89/45 89/90/45
f 89/90/45 90/89/45 92/91/46 91/92/46
f 91/92/46 92/91/46 94/93/47 93/94/47
f 93/94/47 94/93/47 96/95/48 95/96/48
f 95/96/48 96/95/48 98/97/49 97/98/49
f 97/98/49 98/97/49 100/99/50 99/100/50
f 99/100/50 100/99/50 102/101/51 101/102/51
f 101/102/51 102/101/51 104/103/52 103/104/52
f 103/104/52 104/103/52 106/105/53 105/106/53
f 105/106/53 106/105/53 108/107/54 107/108/54
f 107/108/54 108/107/54 110/109/55 109/110/55
f 109/110/55 110/109/55 112/111/56 111/112/56
f 111/112/56 112/111/56 114/113/57 113/114/57
f 113/114/57 114/113/57 116/115/58 115/116/58
f 115/116/58 116/115/58 118/117/59 117/118/59
f 117/118/59 118/117/59 120/119/60 119/120/60
f 119/120/60 120/119/60 122/121/61 121/122/61
f 121/122/61 122/121/61 124/123/62 123/124/62
f 123/124/62 124/123/62 126/125/63 125/126/63
f 4/3/64 2/2/64 128/127/64 126/125/64 124/123/64 122/121/64 120/119/64 118/117/64 116/115/64 114/113/64 112/111/64 110/109/64 108/107/64 106/105/64 104/103/64 102/101/64 100/99/64 98/97/64 96/95/64 94/93/64 92/91/64 90/89/64 88/87/64 86/85/64 84/83/64 82/81/64 80/79/64 78/77/64 76/75/64 74/73/64 72/71/64 70/69/64 68/67/64 66/65/64 64/63/64 62/61/64 60/59/64 58/57/64 56/55/64 54/53/64 52/51/64 50/49/64 48/47/64 46/45/64 44/43/64 42/41/64 40/39/64 38/37/64 36/35/64 34/33/64 32/31/64 30/29/64 28/27/64 26/25/64 24/23/64 22/21/64 20/19/64 18/17/64 16/15/64 14/13/64 12/11/64 10/9/64 8/7/64 6/5/64
f 125/126/63 126/125/63 128/127/65 127/128/65
f 127/128/65 128/127/65 2/2/1 1/1/1
f 1/1/66 3/4/66 5/6/66 7/8/66 9/10/66 11/12/66 13/14/66 15/16/66 17/18/66 19/20/66 21/22/66 23/24/66 25/26/66 27/28/66 29/30/66 31/32/66 33/34/66 35/36/66 37/38/66 39/40/66 41/42/66 43/44/66 45/46/66 47/48/66 49/50/66 51/52/66 53/54/66 55/56/66 57/58/66 59/60/66 61/62/66 63/64/66 65/66/66 67/68/66 69/70/66 71/72/66 73/74/66 75/76/66 77/78/66 79/80/66 81/82/66 83/84/66 85/86/66 87/88/66 89/90/66 91/92/66 93/94/66 95/96/66 97/98/66 99/100/66 101/102/66 103/104/66 105/106/66 107/108/66 109/110/66 111/112/66 113/114/66 115/116/66 117/118/66 119/120/66 121/122/66 123/124/66 125/126/66 127/128/66
