# Blender v2.79 (sub 0) OBJ File: 'HighpolyCylinder.blend'
# www.blender.org
o Cylinder
v 0.000000 -0.086077 -1.000000
v 0.000000 0.086077 -1.000000
v 0.098017 -0.086077 -0.995185
v 0.098017 0.086077 -0.995185
v 0.195090 -0.086077 -0.980785
v 0.195090 0.086077 -0.980785
v 0.290285 -0.086077 -0.956940
v 0.290285 0.086077 -0.956940
v 0.382683 -0.086077 -0.923880
v 0.382683 0.086077 -0.923880
v 0.471397 -0.086077 -0.881921
v 0.471397 0.086077 -0.881921
v 0.555570 -0.086077 -0.831470
v 0.555570 0.086077 -0.831470
v 0.634393 -0.086077 -0.773010
v 0.634393 0.086077 -0.773010
v 0.707107 -0.086077 -0.707107
v 0.707107 0.086077 -0.707107
v 0.773010 -0.086077 -0.634393
v 0.773010 0.086077 -0.634393
v 0.831470 -0.086077 -0.555570
v 0.831470 0.086077 -0.555570
v 0.881921 -0.086077 -0.471397
v 0.881921 0.086077 -0.471397
v 0.923880 -0.086077 -0.382683
v 0.923880 0.086077 -0.382683
v 0.956940 -0.086077 -0.290285
v 0.956940 0.086077 -0.290285
v 0.980785 -0.086077 -0.195090
v 0.980785 0.086077 -0.195090
v 0.995185 -0.086077 -0.098017
v 0.995185 0.086077 -0.098017
v 1.000000 -0.086077 0.000000
v 1.000000 0.086077 0.000000
v 0.995185 -0.086077 0.098017
v 0.995185 0.086077 0.098017
v 0.980785 -0.086077 0.195091
v 0.980785 0.086077 0.195091
v 0.956940 -0.086077 0.290285
v 0.956940 0.086077 0.290285
v 0.923879 -0.086077 0.382684
v 0.923879 0.086077 0.382684
v 0.881921 -0.086077 0.471397
v 0.881921 0.086077 0.471397
v 0.831469 -0.086077 0.555571
v 0.831469 0.086077 0.555571
v 0.773010 -0.086077 0.634394
v 0.773010 0.086077 0.634394
v 0.707106 -0.086077 0.707107
v 0.707106 0.086077 0.707107
v 0.634393 -0.086077 0.773011
v 0.634393 0.086077 0.773011
v 0.555570 -0.086077 0.831470
v 0.555570 0.086077 0.831470
v 0.471396 -0.086077 0.881922
v 0.471396 0.086077 0.881922
v 0.382683 -0.086077 0.923880
v 0.382683 0.086077 0.923880
v 0.290284 -0.086077 0.956941
v 0.290284 0.086077 0.956941
v 0.195090 -0.086077 0.980785
v 0.195090 0.086077 0.980785
v 0.098016 -0.086077 0.995185
v 0.098016 0.086077 0.995185
v -0.000001 -0.086077 1.000000
v -0.000001 0.086077 1.000000
v -0.098018 -0.086077 0.995185
v -0.098018 0.086077 0.995185
v -0.195091 -0.086077 0.980785
v -0.195091 0.086077 0.980785
v -0.290286 -0.086077 0.956940
v -0.290286 0.086077 0.956940
v -0.382684 -0.086077 0.923879
v -0.382684 0.086077 0.923879
v -0.471398 -0.086077 0.881921
v -0.471398 0.086077 0.881921
v -0.555571 -0.086077 0.831469
v -0.555571 0.086077 0.831469
v -0.634394 -0.086077 0.773010
v -0.634394 0.086077 0.773010
v -0.707108 -0.086077 0.707106
v -0.707108 0.086077 0.707106
v -0.773011 -0.086077 0.634393
v -0.773011 0.086077 0.634393
v -0.831470 -0.086077 0.555570
v -0.831470 0.086077 0.555570
v -0.881922 -0.086077 0.471396
v -0.881922 0.086077 0.471396
v -0.923880 -0.086077 0.382683
v -0.923880 0.086077 0.382683
v -0.956940 -0.086077 0.290285
v -0.956940 0.086077 0.290285
v -0.980785 -0.086077 0.195090
v -0.980785 0.086077 0.195090
v -0.995185 -0.086077 0.098017
v -0.995185 0.086077 0.098017
v -1.000000 -0.086077 0.000000
v -1.000000 0.086077 0.000000
v -0.995185 -0.086077 -0.098016
v -0.995185 0.086077 -0.098016
v -0.980785 -0.086077 -0.195089
v -0.980785 0.086077 -0.195089
v -0.956941 -0.086077 -0.290284
v -0.956941 0.086077 -0.290284
v -0.923880 -0.086077 -0.382682
v -0.923880 0.086077 -0.382682
v -0.881922 -0.086077 -0.471395
v -0.881922 0.086077 -0.471395
v -0.831471 -0.086077 -0.555569
v -0.831471 0.086077 -0.555569
v -0.773012 -0.086077 -0.634392
v -0.773012 0.086077 -0.634392
v -0.707108 -0.086077 -0.707105
v -0.707108 0.086077 -0.707105
v -0.634395 -0.086077 -0.773009
v -0.634395 0.086077 -0.773009
v -0.555572 -0.086077 -0.831468
v -0.555572 0.086077 -0.831468
v -0.471399 -0.086077 -0.881920
v -0.471399 0.086077 -0.881920
v -0.382686 -0.086077 -0.923878
v -0.382686 0.086077 -0.923878
v -0.290288 -0.086077 -0.956939
v -0.290288 0.086077 -0.956939
v -0.195093 -0.086077 -0.980785
v -0.195093 0.086077 -0.980785
v -0.098021 -0.086077 -0.995184
v -0.098021 0.086077 -0.995184
v -0.745357 0.086077 0.611697
v -0.745357 -0.086077 0.611697
v -0.801725 0.086077 0.535694
v -0.801725 -0.086077 0.535694
v 0.094510 0.086077 0.959583
v 0.094510 -0.086077 0.959583
v -0.000001 0.086077 0.964225
v -0.000001 -0.086077 0.964225
v -0.681811 0.086077 0.681810
v -0.681811 -0.086077 0.681810
v -0.094511 0.086077 0.959582
v -0.094511 -0.086077 0.959582
v 0.094511 0.086077 -0.959582
v 0.094511 -0.086077 -0.959582
v 0.188111 0.086077 -0.945698
v 0.188111 -0.086077 -0.945698
v 0.850371 0.086077 -0.454533
v 0.850371 -0.086077 -0.454533
v 0.801724 0.086077 -0.535695
v 0.801724 -0.086077 -0.535695
v 0.000000 0.086077 -0.964226
v 0.000000 -0.086077 -0.964225
v 0.745356 0.086077 -0.611698
v 0.745356 -0.086077 -0.611698
v -0.279901 0.086077 0.922706
v -0.279901 -0.086077 0.922706
v -0.922706 0.086077 0.279900
v -0.922706 -0.086077 0.279900
v -0.188112 0.086077 0.945698
v -0.188112 -0.086077 0.945698
v -0.368994 0.086077 0.890828
v -0.368994 -0.086077 0.890828
v 0.188110 0.086077 0.945698
v 0.188110 -0.086077 0.945698
v 0.454532 0.086077 0.850371
v 0.454532 -0.086077 0.850371
v 0.368993 0.086077 0.890828
v 0.368993 -0.086077 0.890828
v 0.279899 0.086077 0.922706
v 0.279899 -0.086077 0.922706
v -0.850371 0.086077 0.454532
v -0.850371 -0.086077 0.454532
v -0.890828 0.086077 0.368993
v -0.890828 -0.086077 0.368993
v -0.945698 0.086077 0.188111
v -0.945698 -0.086077 0.188111
v -0.959582 0.086077 0.094511
v -0.959582 -0.086077 0.094511
v 0.681810 0.086077 -0.681810
v 0.681810 -0.086077 -0.681810
v 0.611698 0.086077 -0.745356
v 0.611698 -0.086077 -0.745356
v 0.279900 0.086077 -0.922706
v 0.279900 -0.086077 -0.922706
v 0.535695 0.086077 -0.801724
v 0.535695 -0.086077 -0.801724
v -0.611699 0.086077 0.745356
v -0.611699 -0.086077 0.745356
v -0.535696 0.086077 0.801724
v -0.535696 -0.086077 0.801724
v -0.454534 0.086077 0.850371
v -0.454534 -0.086077 0.850370
v 0.681810 0.086077 0.681811
v 0.681810 -0.086077 0.681811
v 0.611698 0.086077 0.745357
v 0.611698 -0.086077 0.745357
v 0.535695 0.086077 0.801724
v 0.535695 -0.086077 0.801724
v -0.094514 0.086077 -0.959582
v -0.094514 -0.086077 -0.959582
v -0.188114 0.086077 -0.945698
v -0.188114 -0.086077 -0.945698
v 0.890828 0.086077 0.368993
v 0.890828 -0.086077 0.368993
v 0.922706 0.086077 0.279900
v 0.922706 -0.086077 0.279900
v -0.801725 0.086077 -0.535694
v -0.801725 -0.086077 -0.535694
v -0.850372 0.086077 -0.454532
v -0.850372 -0.086077 -0.454532
v -0.945698 0.086077 -0.188110
v -0.945698 -0.086077 -0.188110
v -0.745358 0.086077 -0.611697
v -0.745358 -0.086077 -0.611697
v -0.681812 0.086077 -0.681809
v -0.681812 -0.086077 -0.681809
v -0.611700 0.086077 -0.745355
v -0.611700 -0.086077 -0.745355
v -0.368996 0.086077 -0.890827
v -0.368996 -0.086077 -0.890827
v -0.454535 0.086077 -0.850370
v -0.454535 -0.086077 -0.850370
v -0.890829 0.086077 -0.368992
v -0.890829 -0.086077 -0.368992
v -0.922707 0.086077 -0.279899
v -0.922707 -0.086077 -0.279899
v -0.959583 0.086077 -0.094510
v -0.959583 -0.086077 -0.094510
v -0.964226 0.086077 0.000000
v -0.964225 -0.086077 0.000000
v -0.279903 0.086077 -0.922705
v -0.279903 -0.086077 -0.922705
v 0.964225 0.086077 0.000000
v 0.964225 -0.086077 0.000000
v 0.801724 0.086077 0.535695
v 0.801724 -0.086077 0.535695
v 0.745356 0.086077 0.611699
v 0.745356 -0.086077 0.611698
v 0.959582 0.086077 -0.094511
v 0.959582 -0.086077 -0.094511
v 0.890828 0.086077 -0.368993
v 0.890828 -0.086077 -0.368993
v -0.535697 0.086077 -0.801723
v -0.535697 -0.086077 -0.801723
v 0.368993 0.086077 -0.890828
v 0.368993 -0.086077 -0.890828
v 0.922706 0.086077 -0.279900
v 0.922706 -0.086077 -0.279900
v 0.945698 0.086077 0.188111
v 0.945698 -0.086077 0.188111
v 0.850371 0.086077 0.454533
v 0.850371 -0.086077 0.454533
v 0.959582 0.086077 0.094511
v 0.959582 -0.086077 0.094511
v 0.945698 0.086077 -0.188111
v 0.945698 -0.086077 -0.188111
v 0.454533 0.086077 -0.850371
v 0.454533 -0.086077 -0.850371
vn -0.0000 0.0000 -1.0000
vn 0.0980 0.0000 -0.9952
vn 0.1951 0.0000 -0.9808
vn 0.2903 0.0000 -0.9569
vn 0.3827 0.0000 -0.9239
vn 0.4714 0.0000 -0.8819
vn 0.5556 0.0000 -0.8315
vn 0.6344 0.0000 -0.7730
vn 0.7071 0.0000 -0.7071
vn 0.7730 0.0000 -0.6344
vn 0.8315 0.0000 -0.5556
vn 0.8819 0.0000 -0.4714
vn 0.9239 0.0000 -0.3827
vn 0.9569 0.0000 -0.2903
vn 0.9808 0.0000 -0.1951
vn 0.9952 0.0000 -0.0980
vn 1.0000 0.0000 0.0000
vn 0.9952 0.0000 0.0980
vn 0.9808 0.0000 0.1951
vn 0.9569 0.0000 0.2903
vn 0.9239 0.0000 0.3827
vn 0.8819 0.0000 0.4714
vn 0.8315 0.0000 0.5556
vn 0.7730 0.0000 0.6344
vn 0.7071 0.0000 0.7071
vn 0.6344 0.0000 0.7730
vn 0.5556 0.0000 0.8315
vn 0.4714 0.0000 0.8819
vn 0.3827 0.0000 0.9239
vn 0.2903 0.0000 0.9569
vn 0.1951 0.0000 0.9808
vn 0.0980 0.0000 0.9952
vn -0.0000 0.0000 1.0000
vn -0.0980 0.0000 0.9952
vn -0.1951 0.0000 0.9808
vn -0.2903 0.0000 0.9569
vn -0.3827 0.0000 0.9239
vn -0.4714 0.0000 0.8819
vn -0.5556 0.0000 0.8315
vn -0.6344 0.0000 0.7730
vn -0.7071 0.0000 0.7071
vn -0.7730 0.0000 0.6344
vn -0.8315 0.0000 0.5556
vn -0.8819 0.0000 0.4714
vn -0.9239 0.0000 0.3827
vn -0.9569 0.0000 0.2903
vn -0.9808 0.0000 0.1951
vn -0.9952 0.0000 0.0980
vn -1.0000 0.0000 0.0000
vn -0.9952 0.0000 -0.0980
vn -0.9808 0.0000 -0.1951
vn -0.9569 0.0000 -0.2903
vn -0.9239 0.0000 -0.3827
vn -0.8819 0.0000 -0.4714
vn -0.8315 0.0000 -0.5556
vn -0.7730 0.0000 -0.6344
vn -0.7071 0.0000 -0.7071
vn -0.6344 0.0000 -0.7730
vn -0.5556 0.0000 -0.8315
vn -0.4714 0.0000 -0.8819
vn -0.3827 0.0000 -0.9239
vn -0.2903 0.0000 -0.9569
vn -0.1951 0.0000 -0.9808
vn -0.0000 1.0000 0.0000
vn -0.0980 0.0000 -0.9952
vn -0.0000 -1.0000 -0.0000
s 1
f 1//1 2//1 4//2 3//2
f 3//2 4//2 6//3 5//3
f 5//3 6//3 8//4 7//4
f 7//4 8//4 10//5 9//5
f 9//5 10//5 12//6 11//6
f 11//6 12//6 14//7 13//7
f 13//7 14//7 16//8 15//8
f 15//8 16//8 18//9 17//9
f 17//9 18//9 20//10 19//10
f 19//10 20//10 22//11 21//11
f 21//11 22//11 24//12 23//12
f 23//12 24//12 26//13 25//13
f 25//13 26//13 28//14 27//14
f 27//14 28//14 30//15 29//15
f 29//15 30//15 32//16 31//16
f 31//16 32//16 34//17 33//17
f 33//17 34//17 36//18 35//18
f 35//18 36//18 38//19 37//19
f 37//19 38//19 40//20 39//20
f 39//20 40//20 42//21 41//21
f 41//21 42//21 44//22 43//22
f 43//22 44//22 46//23 45//23
f 45//23 46//23 48//24 47//24
f 47//24 48//24 50//25 49//25
f 49//25 50//25 52//26 51//26
f 51//26 52//26 54//27 53//27
f 53//27 54//27 56//28 55//28
f 55//28 56//28 58//29 57//29
f 57//29 58//29 60//30 59//30
f 59//30 60//30 62//31 61//31
f 61//31 62//31 64//32 63//32
f 63//32 64//32 66//33 65//33
f 65//33 66//33 68//34 67//34
f 67//34 68//34 70//35 69//35
f 69//35 70//35 72//36 71//36
f 71//36 72//36 74//37 73//37
f 73//37 74//37 76//38 75//38
f 75//38 76//38 78//39 77//39
f 77//39 78//39 80//40 79//40
f 79//40 80//40 82//41 81//41
f 81//41 82//41 84//42 83//42
f 83//42 84//42 86//43 85//43
f 85//43 86//43 88//44 87//44
f 87//44 88//44 90//45 89//45
f 89//45 90//45 92//46 91//46
f 91//46 92//46 94//47 93//47
f 93//47 94//47 96//48 95//48
f 95//48 96//48 98//49 97//49
f 97//49 98//49 100//50 99//50
f 99//50 100//50 102//51 101//51
f 101//51 102//51 104//52 103//52
f 103//52 104//52 106//53 105//53
f 105//53 106//53 108//54 107//54
f 107//54 108//54 110//55 109//55
f 109//55 110//55 112//56 111//56
f 111//56 112//56 114//57 113//57
f 113//57 114//57 116//58 115//58
f 115//58 116//58 118//59 117//59
f 117//59 118//59 120//60 119//60
f 119//60 120//60 122//61 121//61
f 121//61 122//61 124//62 123//62
f 123//62 124//62 126//63 125//63
f 4//64 2//64 128//64 126//64 124//64 122//64 120//64 118//64 116//64 114//64 112//64 110//64 108//64 106//64 104//64 102//64 100//64 98//64 227//64 225//64 209//64 223//64 221//64 207//64 205//64 211//64 213//64 215//64 241//64 219//64 217//64 229//64 199//64 197//64 149//64 141//64 143//64 181//64 243//64 255//64 183//64 179//64 177//64 151//64 147//64 145//64 239//64 245//64 253//64 237//64 231//64 34//64 32//64 30//64 28//64 26//64 24//64 22//64 20//64 18//64 16//64 14//64 12//64 10//64 8//64 6//64
f 125//63 126//63 128//65 127//65
f 127//65 128//65 2//1 1//1
f 1//66 3//66 5//66 7//66 9//66 11//66 13//66 15//66 17//66 19//66 21//66 23//66 25//66 27//66 29//66 31//66 33//66 232//66 238//66 254//66 246//66 240//66 146//66 148//66 152//66 178//66 180//66 184//66 256//66 244//66 182//66 144//66 142//66 150//66 198//66 200//66 230//66 218//66 220//66 242//66 216//66 214//66 212//66 206//66 208//66 222//66 224//66 210//66 226//66 228//66 97//66 99//66 101//66 103//66 105//66 107//66 109//66 111//66 113//66 115//66 117//66 119//66 121//66 123//66 125//66 127//66
f 130//10 129//10 137//9 138//9
f 34//64 231//64 251//64 247//64 203//64 201//64 249//64 233//64 235//64 191//64 193//64 195//64 163//64 165//64 167//64 161//64 133//64 135//64 139//64 157//64 153//64 159//64 189//64 187//64 185//64 137//64 129//64 131//64 169//64 171//64 155//64 173//64 175//64 227//64 98//64 96//64 94//64 92//64 90//64 88//64 86//64 84//64 82//64 80//64 78//64 76//64 74//64 72//64 70//64 68//64 66//64 64//64 62//64 60//64 58//64 56//64 54//64 52//64 50//64 48//64 46//64 44//64 42//64 40//64 38//64 36//64
f 188//7 187//7 189//6 190//6
f 184//39 183//39 255//38 256//38
f 140//2 139//2 135//1 136//1
f 168//62 167//62 165//61 166//61
f 238//48 237//48 253//47 254//47
f 178//41 177//41 179//40 180//40
f 166//61 165//61 163//60 164//60
f 176//16 175//16 173//15 174//15
f 236//56 235//56 233//55 234//55
f 244//37 243//37 181//36 182//36
f 218//29 217//29 219//28 220//28
f 162//63 161//63 167//62 168//62
f 148//43 147//43 151//42 152//42
f 142//34 141//34 149//33 150//33
f 248//51 247//51 251//50 252//50
f 252//50 251//50 231//49 232//49
f 232//49 231//49 237//48 238//48
f 154//4 153//4 157//3 158//3
f 226//18 225//18 227//17 228//17
f 208//22 207//22 221//21 222//21
f 174//15 173//15 155//14 156//14
f 250//54 249//54 201//53 202//53
f 242//27 241//27 215//26 216//26
f 198//32 197//32 199//31 200//31
f 132//11 131//11 129//10 130//10
f 210//19 209//19 225//18 226//18
f 202//53 201//53 203//52 204//52
f 214//25 213//25 211//24 212//24
f 172//13 171//13 169//12 170//12
f 246//46 245//46 239//45 240//45
f 212//24 211//24 205//23 206//23
f 190//6 189//6 159//5 160//5
f 196//59 195//59 193//58 194//58
f 144//35 143//35 141//34 142//34
f 156//14 155//14 171//13 172//13
f 220//28 219//28 241//27 242//27
f 234//55 233//55 249//54 250//54
f 180//40 179//40 183//39 184//39
f 256//38 255//38 243//37 244//37
f 146//44 145//44 147//43 148//43
f 240//45 239//45 145//44 146//44
f 230//30 229//30 217//29 218//29
f 160//5 159//5 153//4 154//4
f 206//23 205//23 207//22 208//22
f 194//58 193//58 191//57 192//57
f 254//47 253//47 245//46 246//46
f 200//31 199//31 229//30 230//30
f 152//42 151//42 177//41 178//41
f 164//60 163//60 195//59 196//59
f 224//20 223//20 209//19 210//19
f 136//1 135//1 133//65 134//65
f 158//3 157//3 139//2 140//2
f 97//66 228//66 176//66 174//66 156//66 172//66 170//66 132//66 130//66 138//66 186//66 188//66 190//66 160//66 154//66 158//66 140//66 136//66 134//66 162//66 168//66 166//66 164//66 196//66 194//66 192//66 236//66 234//66 250//66 202//66 204//66 248//66 252//66 232//66 33//66 35//66 37//66 39//66 41//66 43//66 45//66 47//66 49//66 51//66 53//66 55//66 57//66 59//66 61//66 63//66 65//66 67//66 69//66 71//66 73//66 75//66 77//66 79//66 81//66 83//66 85//66 87//66 89//66 91//66 93//66 95//66
f 182//36 181//36 143//35 144//35
f 204//52 203//52 247//51 248//51
f 186//8 185//8 187//7 188//7
f 138//9 137//9 185//8 186//8
f 150//33 149//33 197//32 198//32
f 192//57 191//57 235//56 236//56
f 134//65 133//65 161//63 162//63
f 228//17 227//17 175//16 176//16
f 170//12 169//12 131//11 132//11
f 222//21 221//21 223//20 224//20
f 216//26 215//26 213//25 214//25
